<svg
  xmlns="http://www.w3.org/2000/svg"
  xmlns:xlink="http://www.w3.org/1999/xlink"
  version="1.1"
  x="0px"
  y="0px"
  viewBox="0 0 100 100"
  enable-background="new 0 0 100 100"
  xml:space="preserve">
  <path
    style="fill: #4f5d73"
    d="M50,5C25.1,5,5,25.1,5,50c0,24.9,20.1,45,45,45c24.9,0,45-20.1,45-45C95,25.1,74.9,5,50,5L50,5z M24.4,37.1  c-0.9-1-1.5-2.2-1.5-3.6c0-1.4,0.6-2.6,1.5-3.6l5.5-5.5c1-1,2.2-1.5,3.6-1.5c1.4,0,2.6,0.6,3.6,1.5l3.8,3.8L28.3,40.9L24.4,37.1z   M55.6,67.8c-0.4-0.1-0.8-0.4-1.1-0.7L30.1,42.7l7.1-7.1L63.5,62l-4.4,4.4l6.5,1.8c0.2,0,0.3,0.1,0.4,0.3l2.5-2.5  c-0.1-0.1-0.2-0.2-0.3-0.3l-1.8-6.5l-0.8,0.8L39.2,33.5l3.5-3.5l24.5,24.4c0.3,0.3,0.5,0.7,0.7,1.1l4.7,16.9L55.6,67.8z"/>
</svg>

